# xmcd CD database file
#
# Track frame offsets:
#	150
#	67320
#	90937
#
# Disc length: 2449 seconds
#
# Revision: 0
# Processed by: cddbd v1.5.2PL0 Copyright (c) Steve Scherf et al.
# Submitted via: CDex 1.70beta2
#
DISCID=20098f03
DTITLE=日野元彦 - ファースト・アルバム
DYEAR=1970
DGENRE=Jazz
TTITLE0=ジンジャーブレッド・ボーイ
TTITLE1=イントゥ・ザ・ヘヴン
TTITLE2=イントロダクション｜ミネ・テューン
EXTD=YEAR: 1970
EXTT0=
EXTT1=
EXTT2=
PLAYORDER=
